<?xml version="1.0" encoding="UTF-8" standalone="no"?>
<!DOCTYPE svg PUBLIC "-//W3C//DTD SVG 1.1//EN"
 "http://www.w3.org/Graphics/SVG/1.1/DTD/svg11.dtd">
<!-- Generated by graphviz version 2.40.1 (20161225.0304)
 -->
<!-- Title: dependencies Pages: 1 -->
<svg width="504pt" height="284pt"
 viewBox="0.00 0.00 504.00 284.00" xmlns="http://www.w3.org/2000/svg" xmlns:xlink="http://www.w3.org/1999/xlink">
<g id="graph0" class="graph" transform="scale(1 1) rotate(0) translate(4 280)">
<title>dependencies</title>
<polygon fill="#ffffff" stroke="transparent" points="-4,4 -4,-280 500,-280 500,4 -4,4"/>
<text text-anchor="start" x="227.0091" y="-42.4" font-family="sans-serif" font-weight="bold" font-size="14.00" fill="#000000">Legend</text>
<polygon fill="#ffffb3" stroke="transparent" points="14,-10 14,-30 34,-30 34,-10 14,-10"/>
<text text-anchor="start" x="37.629" y="-15.4" font-family="sans-serif" font-size="14.00" fill="#000000"> &#160;Declarations</text>
<polygon fill="#8dd3c7" stroke="transparent" points="127,-10 127,-30 147,-30 147,-10 127,-10"/>
<text text-anchor="start" x="150.7251" y="-15.4" font-family="sans-serif" font-size="14.00" fill="#000000"> &#160;Module</text>
<polygon fill="#80b1d3" stroke="transparent" points="213,-10 213,-30 233,-30 233,-10 213,-10"/>
<text text-anchor="start" x="236.7812" y="-15.4" font-family="sans-serif" font-size="14.00" fill="#000000"> &#160;Bootstrap</text>
<polygon fill="#fdb462" stroke="transparent" points="310,-10 310,-30 330,-30 330,-10 310,-10"/>
<text text-anchor="start" x="333.6732" y="-15.4" font-family="sans-serif" font-size="14.00" fill="#000000"> &#160;Providers</text>
<polygon fill="#fb8072" stroke="transparent" points="406,-10 406,-30 426,-30 426,-10 406,-10"/>
<text text-anchor="start" x="429.7258" y="-15.4" font-family="sans-serif" font-size="14.00" fill="#000000"> &#160;Exports</text>
<g id="clust1" class="cluster">
<title>cluster_AppModule</title>
<polygon fill="none" stroke="#000000" stroke-dasharray="1,5" points="68.5,-70 68.5,-268 427.5,-268 427.5,-70 68.5,-70"/>
</g>
<g id="clust2" class="cluster">
<title>cluster_AppModule_declarations</title>
<polygon fill="none" stroke="#000000" points="248.5,-78 248.5,-130 419.5,-130 419.5,-78 248.5,-78"/>
</g>
<g id="clust7" class="cluster">
<title>cluster_AppModule_bootstrap</title>
<polygon fill="none" stroke="#000000" points="242.5,-208 242.5,-260 330.5,-260 330.5,-208 242.5,-208"/>
</g>
<g id="clust8" class="cluster">
<title>cluster_AppModule_providers</title>
<polygon fill="none" stroke="#000000" points="76.5,-78 76.5,-130 240.5,-130 240.5,-78 76.5,-78"/>
</g>
<!-- HomePage -->
<g id="node1" class="node">
<title>HomePage</title>
<polygon fill="#ffffb3" stroke="#000000" points="411.4248,-122 333.5752,-122 333.5752,-86 411.4248,-86 411.4248,-122"/>
<text text-anchor="middle" x="372.5" y="-99.8" font-family="Times,serif" font-size="14.00" fill="#000000">HomePage</text>
</g>
<!-- AppModule -->
<g id="node3" class="node">
<title>AppModule</title>
<polygon fill="#8dd3c7" stroke="#000000" points="328.1571,-187 325.1571,-191 304.1571,-191 301.1571,-187 244.8429,-187 244.8429,-151 328.1571,-151 328.1571,-187"/>
<text text-anchor="middle" x="286.5" y="-164.8" font-family="Times,serif" font-size="14.00" fill="#000000">AppModule</text>
</g>
<!-- HomePage&#45;&gt;AppModule -->
<g id="edge1" class="edge">
<title>HomePage&#45;&gt;AppModule</title>
<path fill="none" stroke="#000000" d="M333.4425,-104C326.962,-104 322.3019,-104 322.3019,-104 322.3019,-104 322.3019,-140.8939 322.3019,-140.8939"/>
<polygon fill="#000000" stroke="#000000" points="318.802,-140.8938 322.3019,-150.8939 325.802,-140.8939 318.802,-140.8938"/>
</g>
<!-- MyApp -->
<g id="node2" class="node">
<title>MyApp</title>
<polygon fill="#ffffb3" stroke="#000000" points="316.0529,-122 256.9471,-122 256.9471,-86 316.0529,-86 316.0529,-122"/>
<text text-anchor="middle" x="286.5" y="-99.8" font-family="Times,serif" font-size="14.00" fill="#000000">MyApp</text>
</g>
<!-- MyApp&#45;&gt;AppModule -->
<g id="edge2" class="edge">
<title>MyApp&#45;&gt;AppModule</title>
<path fill="none" stroke="#000000" d="M286.5,-122.1061C286.5,-122.1061 286.5,-140.991 286.5,-140.991"/>
<polygon fill="#000000" stroke="#000000" points="283.0001,-140.9909 286.5,-150.991 290.0001,-140.991 283.0001,-140.9909"/>
</g>
<!-- IonicApp  -->
<g id="node4" class="node">
<title>IonicApp </title>
<polygon fill="#80b1d3" stroke="#000000" points="322.8734,-252 250.1266,-252 250.1266,-216 322.8734,-216 322.8734,-252"/>
<text text-anchor="middle" x="286.5" y="-229.8" font-family="Times,serif" font-size="14.00" fill="#000000">IonicApp </text>
</g>
<!-- AppModule&#45;&gt;IonicApp  -->
<g id="edge3" class="edge">
<title>AppModule&#45;&gt;IonicApp </title>
<path fill="none" stroke="#000000" stroke-dasharray="1,5" d="M286.5,-187.1061C286.5,-187.1061 286.5,-205.991 286.5,-205.991"/>
<polygon fill="#000000" stroke="#000000" points="283.0001,-205.9909 286.5,-215.991 290.0001,-205.991 283.0001,-205.9909"/>
</g>
<!-- ContactProvider -->
<g id="node5" class="node">
<title>ContactProvider</title>
<ellipse fill="#fdb462" stroke="#000000" cx="158.5" cy="-104" rx="74.1566" ry="18"/>
<text text-anchor="middle" x="158.5" y="-99.8" font-family="Times,serif" font-size="14.00" fill="#000000">ContactProvider</text>
</g>
<!-- ContactProvider&#45;&gt;AppModule -->
<g id="edge4" class="edge">
<title>ContactProvider&#45;&gt;AppModule</title>
<path fill="none" stroke="#000000" d="M232.9214,-104C243.4051,-104 250.6981,-104 250.6981,-104 250.6981,-104 250.6981,-140.8939 250.6981,-140.8939"/>
<polygon fill="#000000" stroke="#000000" points="247.1982,-140.8938 250.6981,-150.8939 254.1982,-140.8939 247.1982,-140.8938"/>
</g>
</g>
</svg>
