<?xml version="1.0" encoding="UTF-8" standalone="no"?>
<!DOCTYPE svg PUBLIC "-//W3C//DTD SVG 1.1//EN"
 "http://www.w3.org/Graphics/SVG/1.1/DTD/svg11.dtd">
<!-- Generated by graphviz version 2.40.1 (20161225.0304)
 -->
<!-- Title: dependencies Pages: 1 -->
<svg width="537pt" height="284pt"
 viewBox="0.00 0.00 537.00 284.00" xmlns="http://www.w3.org/2000/svg" xmlns:xlink="http://www.w3.org/1999/xlink">
<g id="graph0" class="graph" transform="scale(1 1) rotate(0) translate(4 280)">
<title>dependencies</title>
<polygon fill="#ffffff" stroke="transparent" points="-4,4 -4,-280 533,-280 533,4 -4,4"/>
<text text-anchor="start" x="243.5091" y="-42.4" font-family="sans-serif" font-weight="bold" font-size="14.00" fill="#000000">Legend</text>
<polygon fill="#ffffb3" stroke="transparent" points="30.5,-10 30.5,-30 50.5,-30 50.5,-10 30.5,-10"/>
<text text-anchor="start" x="54.129" y="-15.4" font-family="sans-serif" font-size="14.00" fill="#000000"> &#160;Declarations</text>
<polygon fill="#8dd3c7" stroke="transparent" points="143.5,-10 143.5,-30 163.5,-30 163.5,-10 143.5,-10"/>
<text text-anchor="start" x="167.2251" y="-15.4" font-family="sans-serif" font-size="14.00" fill="#000000"> &#160;Module</text>
<polygon fill="#80b1d3" stroke="transparent" points="229.5,-10 229.5,-30 249.5,-30 249.5,-10 229.5,-10"/>
<text text-anchor="start" x="253.2812" y="-15.4" font-family="sans-serif" font-size="14.00" fill="#000000"> &#160;Bootstrap</text>
<polygon fill="#fdb462" stroke="transparent" points="326.5,-10 326.5,-30 346.5,-30 346.5,-10 326.5,-10"/>
<text text-anchor="start" x="350.1732" y="-15.4" font-family="sans-serif" font-size="14.00" fill="#000000"> &#160;Providers</text>
<polygon fill="#fb8072" stroke="transparent" points="422.5,-10 422.5,-30 442.5,-30 442.5,-10 422.5,-10"/>
<text text-anchor="start" x="446.2258" y="-15.4" font-family="sans-serif" font-size="14.00" fill="#000000"> &#160;Exports</text>
<g id="clust1" class="cluster">
<title>cluster_AppModule</title>
<polygon fill="none" stroke="#000000" stroke-dasharray="1,5" points="8,-70 8,-268 367,-268 367,-70 8,-70"/>
</g>
<g id="clust2" class="cluster">
<title>cluster_AppModule_declarations</title>
<polygon fill="none" stroke="#000000" points="188,-78 188,-130 359,-130 359,-78 188,-78"/>
</g>
<g id="clust7" class="cluster">
<title>cluster_AppModule_bootstrap</title>
<polygon fill="none" stroke="#000000" points="182,-208 182,-260 270,-260 270,-208 182,-208"/>
</g>
<g id="clust8" class="cluster">
<title>cluster_AppModule_providers</title>
<polygon fill="none" stroke="#000000" points="16,-78 16,-130 180,-130 180,-78 16,-78"/>
</g>
<g id="clust9" class="cluster">
<title>cluster_ContactPageModule</title>
<polygon fill="none" stroke="#000000" stroke-dasharray="1,5" points="375,-70 375,-195 521,-195 521,-70 375,-70"/>
</g>
<g id="clust10" class="cluster">
<title>cluster_ContactPageModule_declarations</title>
<polygon fill="none" stroke="#000000" points="397,-78 397,-130 499,-130 499,-78 397,-78"/>
</g>
<!-- HomePage -->
<g id="node1" class="node">
<title>HomePage</title>
<polygon fill="#ffffb3" stroke="#000000" points="350.9248,-122 273.0752,-122 273.0752,-86 350.9248,-86 350.9248,-122"/>
<text text-anchor="middle" x="312" y="-99.8" font-family="Times,serif" font-size="14.00" fill="#000000">HomePage</text>
</g>
<!-- AppModule -->
<g id="node3" class="node">
<title>AppModule</title>
<polygon fill="#8dd3c7" stroke="#000000" points="267.6571,-187 264.6571,-191 243.6571,-191 240.6571,-187 184.3429,-187 184.3429,-151 267.6571,-151 267.6571,-187"/>
<text text-anchor="middle" x="226" y="-164.8" font-family="Times,serif" font-size="14.00" fill="#000000">AppModule</text>
</g>
<!-- HomePage&#45;&gt;AppModule -->
<g id="edge1" class="edge">
<title>HomePage&#45;&gt;AppModule</title>
<path fill="none" stroke="#000000" d="M272.9425,-104C266.462,-104 261.8019,-104 261.8019,-104 261.8019,-104 261.8019,-140.8939 261.8019,-140.8939"/>
<polygon fill="#000000" stroke="#000000" points="258.302,-140.8938 261.8019,-150.8939 265.302,-140.8939 258.302,-140.8938"/>
</g>
<!-- MyApp -->
<g id="node2" class="node">
<title>MyApp</title>
<polygon fill="#ffffb3" stroke="#000000" points="255.5529,-122 196.4471,-122 196.4471,-86 255.5529,-86 255.5529,-122"/>
<text text-anchor="middle" x="226" y="-99.8" font-family="Times,serif" font-size="14.00" fill="#000000">MyApp</text>
</g>
<!-- MyApp&#45;&gt;AppModule -->
<g id="edge2" class="edge">
<title>MyApp&#45;&gt;AppModule</title>
<path fill="none" stroke="#000000" d="M226,-122.1061C226,-122.1061 226,-140.991 226,-140.991"/>
<polygon fill="#000000" stroke="#000000" points="222.5001,-140.9909 226,-150.991 229.5001,-140.991 222.5001,-140.9909"/>
</g>
<!-- IonicApp  -->
<g id="node4" class="node">
<title>IonicApp </title>
<polygon fill="#80b1d3" stroke="#000000" points="262.3734,-252 189.6266,-252 189.6266,-216 262.3734,-216 262.3734,-252"/>
<text text-anchor="middle" x="226" y="-229.8" font-family="Times,serif" font-size="14.00" fill="#000000">IonicApp </text>
</g>
<!-- AppModule&#45;&gt;IonicApp  -->
<g id="edge3" class="edge">
<title>AppModule&#45;&gt;IonicApp </title>
<path fill="none" stroke="#000000" stroke-dasharray="1,5" d="M226,-187.1061C226,-187.1061 226,-205.991 226,-205.991"/>
<polygon fill="#000000" stroke="#000000" points="222.5001,-205.9909 226,-215.991 229.5001,-205.991 222.5001,-205.9909"/>
</g>
<!-- ContactProvider -->
<g id="node5" class="node">
<title>ContactProvider</title>
<ellipse fill="#fdb462" stroke="#000000" cx="98" cy="-104" rx="74.1566" ry="18"/>
<text text-anchor="middle" x="98" y="-99.8" font-family="Times,serif" font-size="14.00" fill="#000000">ContactProvider</text>
</g>
<!-- ContactProvider&#45;&gt;AppModule -->
<g id="edge4" class="edge">
<title>ContactProvider&#45;&gt;AppModule</title>
<path fill="none" stroke="#000000" d="M172.4214,-104C182.9051,-104 190.1981,-104 190.1981,-104 190.1981,-104 190.1981,-140.8939 190.1981,-140.8939"/>
<polygon fill="#000000" stroke="#000000" points="186.6982,-140.8938 190.1981,-150.8939 193.6982,-140.8939 186.6982,-140.8938"/>
</g>
<!-- ContactPage -->
<g id="node6" class="node">
<title>ContactPage</title>
<polygon fill="#ffffb3" stroke="#000000" points="491.2591,-122 404.7409,-122 404.7409,-86 491.2591,-86 491.2591,-122"/>
<text text-anchor="middle" x="448" y="-99.8" font-family="Times,serif" font-size="14.00" fill="#000000">ContactPage</text>
</g>
<!-- ContactPageModule -->
<g id="node7" class="node">
<title>ContactPageModule</title>
<polygon fill="#8dd3c7" stroke="#000000" points="513.309,-187 510.309,-191 489.309,-191 486.309,-187 382.691,-187 382.691,-151 513.309,-151 513.309,-187"/>
<text text-anchor="middle" x="448" y="-164.8" font-family="Times,serif" font-size="14.00" fill="#000000">ContactPageModule</text>
</g>
<!-- ContactPage&#45;&gt;ContactPageModule -->
<g id="edge5" class="edge">
<title>ContactPage&#45;&gt;ContactPageModule</title>
<path fill="none" stroke="#000000" d="M448,-122.1061C448,-122.1061 448,-140.991 448,-140.991"/>
<polygon fill="#000000" stroke="#000000" points="444.5001,-140.9909 448,-150.991 451.5001,-140.991 444.5001,-140.9909"/>
</g>
</g>
</svg>
